# Blender 4.5.3 LTS
# www.blender.org
o Cube
v -0.500000 -0.500000 0.500000
v -0.500000 0.500000 0.500000
v -0.500000 -0.500000 -0.500000
v -0.500000 0.500000 -0.500000
v 0.500000 -0.500000 0.500000
v 0.500000 0.500000 0.500000
v 0.500000 -0.500000 -0.500000
v 0.500000 0.500000 -0.500000
v -0.500000 -0.500000 0.000000
v -0.500000 0.500000 0.000000
v 0.500000 -0.500000 0.000000
v 0.500000 0.500000 0.000000
v -0.500000 0.000000 0.500000
v -0.500000 0.000000 -0.500000
v 0.500000 0.000000 -0.500000
v 0.500000 0.000000 0.500000
v 0.500000 0.000000 0.000000
v -0.500000 0.000000 0.000000
v 0.000000 -0.500000 -0.500000
v 0.000000 0.500000 -0.500000
v 0.000000 -0.500000 0.500000
v 0.000000 0.500000 0.500000
v 0.000000 0.500000 0.000000
v 0.000000 -0.500000 0.000000
v 0.000000 0.000000 0.500000
v 0.000000 0.000000 -0.500000
vn -1.0000 -0.0000 -0.0000
vn -0.0000 -0.0000 -1.0000
vn 1.0000 -0.0000 -0.0000
vn -0.0000 -0.0000 1.0000
vn -0.0000 -1.0000 -0.0000
vn -0.0000 1.0000 -0.0000
vt 1.000000 0.500000
vt 0.500000 1.000000
vt 0.500000 0.500000
vt 1.000000 0.000000
vt 0.500000 0.000000
vt 0.000000 0.500000
vt 0.000000 0.000000
vt 0.000000 1.000000
vt 1.000000 1.000000
s 0
f 10/1/1 14/2/1 18/3/1
f 20/1/2 15/2/2 26/3/2
f 12/1/3 16/2/3 17/3/3
f 22/1/4 13/2/4 25/3/4
f 11/1/5 21/2/5 24/3/5
f 10/1/6 22/2/6 23/3/6
f 4/4/6 23/3/6 20/5/6
f 7/4/5 24/3/5 19/5/5
f 8/4/3 17/3/3 15/5/3
f 2/4/1 18/3/1 13/5/1
f 13/5/1 9/6/1 1/7/1
f 15/5/3 11/6/3 7/7/3
f 25/3/4 1/8/4 21/6/4
f 17/3/3 5/8/3 11/6/3
f 26/3/2 7/8/2 19/6/2
f 18/3/1 3/8/1 9/6/1
f 14/5/2 19/6/2 3/7/2
f 16/5/4 21/6/4 5/7/4
f 19/5/5 9/6/5 3/7/5
f 20/5/6 12/6/6 8/7/6
f 23/3/6 6/8/6 12/6/6
f 24/3/5 1/8/5 9/6/5
f 6/4/4 25/3/4 16/5/4
f 4/4/2 26/3/2 14/5/2
f 10/1/1 4/9/1 14/2/1
f 20/1/2 8/9/2 15/2/2
f 12/1/3 6/9/3 16/2/3
f 22/1/4 2/9/4 13/2/4
f 11/1/5 5/9/5 21/2/5
f 10/1/6 2/9/6 22/2/6
f 4/4/6 10/1/6 23/3/6
f 7/4/5 11/1/5 24/3/5
f 8/4/3 12/1/3 17/3/3
f 2/4/1 10/1/1 18/3/1
f 13/5/1 18/3/1 9/6/1
f 15/5/3 17/3/3 11/6/3
f 25/3/4 13/2/4 1/8/4
f 17/3/3 16/2/3 5/8/3
f 26/3/2 15/2/2 7/8/2
f 18/3/1 14/2/1 3/8/1
f 14/5/2 26/3/2 19/6/2
f 16/5/4 25/3/4 21/6/4
f 19/5/5 24/3/5 9/6/5
f 20/5/6 23/3/6 12/6/6
f 23/3/6 22/2/6 6/8/6
f 24/3/5 21/2/5 1/8/5
f 6/4/4 22/1/4 25/3/4
f 4/4/2 20/1/2 26/3/2
